<?xml version="1.0" encoding="utf-8"?>
<svg version="1.1" xmlns:xlink="http://www.w3.org/1999/xlink" width="50px" height="39px" xmlns="http://www.w3.org/2000/svg">
  <g transform="matrix(1 0 0 1 -168 -600 )">
    <path d="M 46.163504464285715 35.19140625  C 46.340215773809526 35.01598011363637  46.42857142857143 34.80823863636364  46 34.56818181818182  L 46 13.295454545454547  C 45.83333333333334 13.960227272727272  45.19159226190477 14.569602272727272  44.503348214285715 15.123579545454547  C 39.51822916666667 18.927556818181817  35.5561755952381 22.048295454545457  32.6171875 24.485795454545457  C 31.668526785714285 25.27982954545454  30.896577380952383 25.8984375  30.301339285714285 26.341619318181817  C 29.706101190476193 26.784801136363637  28.90159970238096 27.23259943181818  27.88783482142857 27.685014204545457  C 26.874069940476193 28.137428977272727  25.92075892857143 28.363636363636363  25.027901785714285 28.363636363636363  L 25 28.363636363636363  L 24.972098214285715 28.363636363636363  C 24.079241071428573 28.363636363636363  23.12593005952381 28.137428977272727  22.112165178571427 27.685014204545457  C 21.09840029761905 27.23259943181818  20.29389880952381 26.784801136363637  19.698660714285715 26.341619318181817  C 19.10342261904762 25.8984375  18.331473214285715 25.27982954545454  17.3828125 24.485795454545457  C 14.443824404761907 22.048295454545457  10.481770833333336 18.927556818181817  5.496651785714286 15.123579545454547  C 4.808407738095238 14.569602272727272  4.166666666666667 13.960227272727272  4 13.295454545454547  L 4 34.56818181818182  C 3.571428571428571 34.80823863636364  3.6597842261904767 35.01598011363637  3.8364955357142856 35.19140625  C 4.013206845238095 35.36683238636363  4.222470238095238 35.45454545454545  4.464285714285714 35  L 45.535714285714285 35  C 45.77752976190476 35.45454545454545  45.986793154761905 35.36683238636363  46.163504464285715 35.19140625  Z M 45.131138392857146 9.099076704545453  C 45.99609375 7.7602982954545405  46.42857142857143 6.5461647727272725  46.42857142857143 5.456676136363636  L 46.42857142857143 5.151988636363636  L 46.42857142857143 4.778053977272728  C 46.42857142857143 4.778053977272728  46.42392113095239 4.658025568181812  46.414620535714285 4.41796875  C 46.40531994047619 4.177911931818179  46.377418154761905 4.062499999999995  46.33091517857143 4.071732954545453  C 46.284412202380956 4.080965909090908  46.23325892857143 3.997869318181815  46.177455357142854 3.822443181818182  C 46.121651785714285 3.647017045454541  46.03794642857143 3.577769886363634  45.926339285714285 3.6147017045454533  C 45.814732142857146 3.6516335227272725  45.68452380952381 3.628551136363636  45.535714285714285 4  L 4.464285714285714 4  C 4.222470238095238 3.5454545454545467  4.013206845238095 3.633167613636359  3.8364955357142856 3.80859375  C 3.6597842261904767 3.9840198863636327  3.571428571428571 4.1917613636363615  3.571428571428571 4.4318181818181825  C 3.571428571428571 7.534090909090911  4.938616071428571 10.156249999999995  7.672991071428571 12.298295454545453  C 11.263020833333336 15.105113636363633  14.992559523809526 18.03196022727273  18.861607142857142 21.07883522727273  C 18.973214285714285 21.17116477272727  19.29873511904762 21.44353693181818  19.838169642857142 21.895951704545457  C 20.377604166666668 22.348366477272727  20.80543154761905 22.69460227272727  21.121651785714285 22.934659090909093  C 21.43787202380953 23.174715909090907  21.851748511904763 23.465553977272723  22.36328125 23.807173295454543  C 22.874813988095237 24.14879261363636  23.34449404761905 24.402698863636363  23.772321428571427 24.568892045454543  C 24.20014880952381 24.73508522727273  24.600074404761905 24.818181818181817  24.972098214285715 24.818181818181817  L 25 24.818181818181817  L 25.027901785714285 24.818181818181817  C 25.3999255952381 24.818181818181817  25.799851190476193 24.73508522727273  26.22767857142857 24.568892045454543  C 26.65550595238096 24.402698863636363  27.125186011904763 24.14879261363636  27.63671875 23.807173295454543  C 28.148251488095237 23.465553977272723  28.562127976190478 23.174715909090907  28.878348214285715 22.934659090909093  C 29.19456845238096 22.69460227272727  29.622395833333336 22.348366477272727  30.161830357142854 21.895951704545457  C 30.701264880952383 21.44353693181818  31.026785714285715 21.17116477272727  31.138392857142854 21.07883522727273  C 35.007440476190474 18.03196022727273  38.73697916666667 15.105113636363633  42.32700892857143 12.298295454545453  C 43.331473214285715 11.504261363636362  44.266183035714285 10.437855113636362  45.131138392857146 9.099076704545453  Z M 48.68861607142857 1.301846590909089  C 49.562872023809526 2.169744318181815  50 3.213068181818182  50 4.4318181818181825  L 50 34.56818181818182  C 50 35.78693181818182  49.562872023809526 36.83025568181819  48.68861607142857 37.698153409090914  C 47.81436011904763 38.56605113636363  46.76339285714287 39  45.535714285714285 39  L 4.464285714285714 39  C 3.2366071428571432 39  2.1856398809523814 38.56605113636363  1.3113839285714286 37.698153409090914  C 0.4371279761904762 36.83025568181819  0 35.78693181818182  0 34.56818181818182  L 0 4.4318181818181825  C 0 3.213068181818182  0.4371279761904762 2.169744318181815  1.3113839285714286 1.301846590909089  C 2.1856398809523814 0.43394886363635865  3.2366071428571432 0  4.464285714285714 0  L 45.535714285714285 0  C 46.76339285714287 0  47.81436011904763 0.43394886363635865  48.68861607142857 1.301846590909089  Z " fill-rule="nonzero" fill="#000000" stroke="none" transform="matrix(1 0 0 1 168 600 )" />
  </g>
</svg>