<?xml version="1.0" encoding="utf-8"?>
<svg version="1.1" xmlns:xlink="http://www.w3.org/1999/xlink" width="50px" height="50px" xmlns="http://www.w3.org/2000/svg">
  <g transform="matrix(1 0 0 1 -168 -490 )">
    <path d="M 49.893465909090914 38.74289772727273  C 49.96448863636363 38.90861742424242  50 39.15719696969696  50 39.48863636363637  C 50 40.12784090909091  49.88162878787879 40.96235795454545  49.64488636363637 41.9921875  C 49.408143939393945 43.02201704545455  49.1595643939394 43.832859848484844  48.89914772727273 44.42471590909091  C 48.40198863636363 45.60842803030303  46.95785984848486 46.863162878787875  44.56676136363637 48.18892045454545  C 42.34138257575758 49.39630681818182  40.13967803030303 50  37.96164772727273 50  C 37.32244318181818 50  36.695075757575765 49.95857007575758  36.07954545454545 49.87571022727273  C 35.464015151515156 49.79285037878788  34.78338068181819 49.64488636363637  34.03764204545455 49.43181818181818  C 33.291903409090914 49.21875  32.73555871212122 49.04711174242424  32.36860795454545 48.916903409090914  C 32.0016571969697 48.78669507575758  31.344696969696972 48.544034090909086  30.39772727272727 48.18892045454545  C 29.45075757575758 47.83380681818182  28.87073863636364 47.62073863636363  28.657670454545453 47.549715909090914  C 26.337594696969703 46.72111742424242  24.266098484848484 45.73863636363637  22.443181818181817 44.60227272727273  C 19.43655303030303 42.73200757575758  16.31155303030303 40.17518939393939  13.068181818181818 36.93181818181818  C 9.824810606060606 33.68844696969696  7.267992424242426 30.563446969696972  5.3977272727272725 27.556818181818183  C 4.261363636363636 25.733901515151516  3.278882575757576 23.662405303030297  2.450284090909091 21.342329545454547  C 2.3792613636363638 21.12926136363636  2.166193181818182 20.54924242424242  1.8110795454545456 19.60227272727273  C 1.455965909090909 18.655303030303028  1.2133049242424243 17.998342803030297  1.083096590909091 17.631392045454547  C 0.9528882575757576 17.264441287878785  0.78125 16.70809659090909  0.5681818181818182 15.962357954545453  C 0.35511363636363635 15.216619318181813  0.20714962121212124 14.535984848484846  0.12428977272727272 13.920454545454547  C 0.04142992424242424 13.304924242424237  0 12.677556818181818  0 12.03835227272727  C 0 9.860321969696967  0.6036931818181818 7.65861742424242  1.8110795454545456 5.433238636363635  C 3.1368371212121215 3.0421401515151434  4.39157196969697 1.5980113636363646  5.575284090909091 1.1008522727272707  C 6.167140151515152 0.8404356060606022  6.977982954545454 0.5918560606060552  8.0078125 0.35511363636363535  C 9.037642045454545 0.11837121212120993  9.872159090909092 0  10.511363636363637 0  C 10.842803030303031 0  11.091382575757578 0.035511363636364646  11.257102272727272 0.10653409090908839  C 11.683238636363637 0.24857954545454697  12.31060606060606 1.148200757575757  13.139204545454545 2.8053977272727293  C 13.399621212121213 3.255208333333326  13.754734848484851 3.8944128787878727  14.204545454545455 4.723011363636365  C 14.65435606060606 5.551609848484845  15.068655303030305 6.303267045454547  15.447443181818182 6.977982954545453  C 15.82623106060606 7.652698863636365  16.193181818181817 8.285984848484846  16.548295454545457 8.877840909090912  C 16.619318181818183 8.972537878787874  16.826467803030305 9.268465909090912  17.169744318181817 9.765625  C 17.513020833333336 10.262784090909088  17.76751893939394 10.683001893939393  17.933238636363637 11.026278409090912  C 18.098958333333336 11.36955492424242  18.181818181818183 11.706912878787874  18.181818181818183 12.03835227272727  C 18.181818181818183 12.511837121212116  17.844460227272727 13.103693181818182  17.169744318181817 13.813920454545453  C 16.49502840909091 14.52414772727273  15.761126893939394 15.175189393939393  14.968039772727273 15.767045454545453  C 14.174952651515152 16.35890151515151  13.441051136363635 16.986268939393938  12.766335227272727 17.64914772727273  C 12.091619318181818 18.312026515151516  11.754261363636363 18.85653409090909  11.754261363636363 19.282670454545453  C 11.754261363636363 19.495738636363637  11.81344696969697 19.762073863636363  11.931818181818182 20.081676136363637  C 12.050189393939394 20.40127840909091  12.150804924242426 20.64393939393939  12.233664772727272 20.80965909090909  C 12.316524621212123 20.975378787878785  12.482244318181818 21.259469696969695  12.730823863636365 21.661931818181817  C 12.979403409090908 22.064393939393938  13.115530303030305 22.289299242424242  13.139204545454545 22.33664772727273  C 14.938446969696969 25.580018939393934  16.998106060606062 28.36174242424242  19.318181818181817 30.681818181818183  C 21.638257575757578 33.00189393939393  24.419981060606062 35.06155303030303  27.66335227272727 36.86079545454546  C 27.710700757575758 36.88446969696969  27.935606060606062 37.02059659090909  28.338068181818183 37.26917613636363  C 28.740530303030305 37.51775568181818  29.024621212121215 37.683475378787875  29.19034090909091 37.76633522727273  C 29.35606060606061 37.84919507575758  29.59872159090909 37.9498106060606  29.918323863636363 38.06818181818182  C 30.237926136363637 38.18655303030303  30.504261363636363 38.24573863636363  30.717329545454547 38.24573863636363  C 31.14346590909091 38.24573863636363  31.687973484848484 37.90838068181818  32.35085227272727 37.23366477272727  C 33.01373106060606 36.55894886363637  33.64109848484849 35.825047348484844  34.23295454545455 35.03196022727273  C 34.82481060606061 34.238873106060595  35.47585227272727 33.50497159090909  36.18607954545455 32.83025568181818  C 36.89630681818182 32.15553977272727  37.48816287878788 31.818181818181817  37.96164772727273 31.818181818181817  C 38.293087121212125 31.818181818181817  38.63044507575758 31.901041666666664  38.973721590909086 32.06676136363637  C 39.31699810606061 32.232481060606055  39.737215909090914 32.486979166666664  40.234375 32.83025568181818  C 40.731534090909086 33.17353219696969  41.027462121212125 33.38068181818182  41.122159090909086 33.45170454545454  C 41.714015151515156 33.80681818181818  42.34730113636363 34.17376893939393  43.02201704545455 34.55255681818182  C 43.69673295454545 34.93134469696969  44.448390151515156 35.34564393939393  45.27698863636363 35.79545454545454  C 46.105587121212125 36.24526515151515  46.74479166666667 36.60037878787878  47.19460227272727 36.86079545454546  C 48.85179924242424 37.68939393939393  49.75142045454545 38.31676136363637  49.893465909090914 38.74289772727273  Z " fill-rule="nonzero" fill="#000000" stroke="none" transform="matrix(1 0 0 1 168 490 )" />
  </g>
</svg>